<svg width="267" height="27" fill="none" xmlns="http://www.w3.org/2000/svg">
    <path fill="currentColor" d="M257.816 2.9171c3.19 0 8.468 1.1332 9.005 6.8883h-6.053c-.269-1.1928-.954-2.3558-2.714-2.3558-1.312 0-2.177.5666-2.177 1.491 0 .8946.597 1.2524 1.849 1.5506l3.34.8051c3.429.835 5.934 2.3856 5.934 6.0235 0 4.2045-3.459 6.769-8.886 6.769-4.085 0-8.856-1.6997-9.483-7.3654h6.143c.298 1.491 1.491 2.4452 3.429 2.4452 1.372 0 2.177-.5666 2.177-1.4015 0-.5666-.238-1.1331-1.58-1.4313l-3.4-.8052c-3.995-.9243-5.934-2.5644-5.934-5.8147 0-4.294 3.429-6.7988 8.35-6.7988ZM246.825 3.3645V13.831c0 6.6497-3.638 10.2579-9.78 10.2579-6.143 0-9.781-3.6082-9.781-10.2579V3.3645h6.083v10.6753c0 2.7732 1.402 4.443 3.698 4.443 2.296 0 3.697-1.6698 3.697-4.443V3.3645h6.083ZM196.426 8.404h-9.751v2.7135h8.35v4.8307h-8.35v2.6539h9.751v5.0395h-15.744V3.3645h15.744V8.404ZM171.671 3.3645h6.023v20.2771h-4.682l-8.468-9.572v9.572h-5.994V3.3645h4.682l8.439 9.7509V3.3645Z"/>
    <path fill-rule="evenodd" clip-rule="evenodd" d="M218.914 15.1593v-.0002l-1.995-.864c-2.661-1.1519-5.359 1.546-4.207 4.2064l.864 1.9953v.0002l3.737 3.7364c1.473 1.4739 3.863 1.4739 5.337 0 1.474-1.474 1.474-3.8638 0-5.3378l-3.736-3.7361v-.0002ZM204.822 11.7431l1.586.604c2.724 1.0373 5.393-1.6323 4.356-4.3558l-.604-1.586-3.736-3.7364c-1.474-1.474-3.864-1.474-5.338 0-1.474 1.474-1.474 3.8638 0 5.3378l3.736 3.7364ZM213.576 6.4053v.0001l-.819 1.9758c-1.093 2.6345 1.547 5.2742 4.181 4.1815l1.976-.8196V11.7428l3.736-3.7362c1.474-1.474 1.474-3.8637 0-5.3377-1.474-1.474-3.864-1.474-5.338 0l-3.736 3.7363v.0001ZM210.16 20.497v-.0001l.607-1.5777c1.052-2.7332-1.634-5.4192-4.367-4.3673l-1.578.6073v.0001c0-.0001 0-.0001 0 0l-3.736 3.7363c-1.474 1.474-1.474 3.8638 0 5.3378 1.474 1.4739 3.864 1.4739 5.338 0l3.736-3.7364Z" fill="#FF5600"/>
    <path fill="currentColor" d="M152.177 21.7525v1.9084h-13.418V3.3839h2.117v18.3686h11.301ZM130.078 17.7568h-10.615l-2.624 5.9042h-2.267l9.185-20.4262h2.027l9.185 20.4262h-2.267l-2.624-5.9042Zm-.864-1.9383L124.77 5.7993l-4.443 10.0192h8.887ZM99.7868 5.3221v7.2759h10.7652v1.9681H99.7868v7.1566h11.9572v1.9382H97.6697V3.3839h14.0743V5.322H99.7868ZM85.2628 16.2956h-5.278v7.3653h-2.1171V3.3839h7.5442c4.5326 0 7.7232 2.475 7.7232 6.4707 0 3.2503-2.147 5.5166-5.4271 6.2024l6.2919 7.6039H91.346l-6.0832-7.3653Zm-5.278-1.9383h5.3675c3.3099 0 5.6657-1.6997 5.6657-4.5027 0-2.8328-2.3558-4.5325-5.6657-4.5325h-5.3675v9.0352ZM61.144 5.3221v7.2759h10.7648v1.9681H61.144v7.1566h11.9575v1.9382H59.0269V3.3839h14.0746V5.322H61.144ZM53.2981 3.3838V23.661H51.181v-9.065H38.9253v9.065h-2.1172V3.3839h2.1172v9.2737H51.181V3.3839h2.1171ZM33.3788 5.3221h-7.5443v18.3388h-2.1171V5.3221h-7.5443V3.3838h17.2057v1.9383ZM2.1172 5.3221v7.2759h10.7647v1.9681H2.1172v7.1566h11.9575v1.9382H0V3.3839h14.0747V5.322H2.1172Z"/>
</svg>