<svg xmlns="http://www.w3.org/2000/svg" viewBox="0 0 24 24">
    <g transform="translate(-199.5 -1.5)">
        <path fill="#FF5600" fill-rule="evenodd" clip-rule="evenodd" d="M218.914 15.1593v-.0002l-1.995-.864c-2.661-1.1519-5.359 1.546-4.207 4.2064l.864 1.9953v.0002l3.737 3.7364c1.473 1.4739 3.863 1.4739 5.337 0 1.474-1.474 1.474-3.8638 0-5.3378l-3.736-3.7361v-.0002ZM204.822 11.7431l1.586.604c2.724 1.0373 5.393-1.6323 4.356-4.3558l-.604-1.586-3.736-3.7364c-1.474-1.474-3.864-1.474-5.338 0-1.474 1.474-1.474 3.8638 0 5.3378l3.736 3.7364ZM213.576 6.4053v.0001l-.819 1.9758c-1.093 2.6345 1.547 5.2742 4.181 4.1815l1.976-.8196V11.7428l3.736-3.7362c1.474-1.474 1.474-3.8637 0-5.3377-1.474-1.474-3.864-1.474-5.338 0l-3.736 3.7363v.0001ZM210.16 20.497v-.0001l.607-1.5777c1.052-2.7332-1.634-5.4192-4.367-4.3673l-1.578.6073v.0001l-3.736 3.7363c-1.474 1.474-1.474 3.8638 0 5.3378 1.474 1.4739 3.864 1.4739 5.338 0l3.736-3.7364Z"/>
    </g>
</svg>
